<mxfile host="Electron" agent="Mozilla/5.0 (Windows NT 10.0; Win64; x64) AppleWebKit/537.36 (KHTML, like Gecko) draw.io/24.7.17 Chrome/128.0.6613.36 Electron/32.0.1 Safari/537.36" version="24.7.17">
  <diagram id="C5RBs43oDa-KdzZeNtuy" name="Page-1">
    <mxGraphModel dx="1050" dy="621" grid="1" gridSize="10" guides="1" tooltips="1" connect="1" arrows="1" fold="1" page="1" pageScale="1" pageWidth="827" pageHeight="1169" math="0" shadow="0">
      <root>
        <mxCell id="WIyWlLk6GJQsqaUBKTNV-0" />
        <mxCell id="WIyWlLk6GJQsqaUBKTNV-1" parent="WIyWlLk6GJQsqaUBKTNV-0" />
        <mxCell id="CWZuyPQcdSTSCTgXCkEn-3" value="Search" style="swimlane;fontStyle=1;align=center;verticalAlign=top;childLayout=stackLayout;horizontal=1;startSize=26;horizontalStack=0;resizeParent=1;resizeParentMax=0;resizeLast=0;collapsible=1;marginBottom=0;whiteSpace=wrap;html=1;" vertex="1" parent="WIyWlLk6GJQsqaUBKTNV-1">
          <mxGeometry x="334" y="140" width="200" height="170" as="geometry" />
        </mxCell>
        <mxCell id="CWZuyPQcdSTSCTgXCkEn-4" value="- filters: List&amp;lt;Filter&amp;gt;&lt;br&gt;- sortings: List&amp;lt;Sorting&amp;gt;" style="text;strokeColor=none;fillColor=none;align=left;verticalAlign=top;spacingLeft=4;spacingRight=4;overflow=hidden;rotatable=0;points=[[0,0.5],[1,0.5]];portConstraint=eastwest;whiteSpace=wrap;html=1;" vertex="1" parent="CWZuyPQcdSTSCTgXCkEn-3">
          <mxGeometry y="26" width="200" height="34" as="geometry" />
        </mxCell>
        <mxCell id="CWZuyPQcdSTSCTgXCkEn-5" value="" style="line;strokeWidth=1;fillColor=none;align=left;verticalAlign=middle;spacingTop=-1;spacingLeft=3;spacingRight=3;rotatable=0;labelPosition=right;points=[];portConstraint=eastwest;strokeColor=inherit;" vertex="1" parent="CWZuyPQcdSTSCTgXCkEn-3">
          <mxGeometry y="60" width="200" height="20" as="geometry" />
        </mxCell>
        <mxCell id="CWZuyPQcdSTSCTgXCkEn-6" value="+ searchProducts(): List&amp;lt;Product&amp;gt;&lt;div&gt;+ addFilter(filter: Filter) void&lt;/div&gt;&lt;div&gt;+ addSorting(sorting: Sorting): void&lt;/div&gt;&lt;div&gt;+clearFilters() void&lt;/div&gt;&lt;div&gt;+clearSortings() void&lt;/div&gt;&lt;div&gt;&lt;br&gt;&lt;/div&gt;" style="text;strokeColor=none;fillColor=none;align=left;verticalAlign=top;spacingLeft=4;spacingRight=4;overflow=hidden;rotatable=0;points=[[0,0.5],[1,0.5]];portConstraint=eastwest;whiteSpace=wrap;html=1;" vertex="1" parent="CWZuyPQcdSTSCTgXCkEn-3">
          <mxGeometry y="80" width="200" height="90" as="geometry" />
        </mxCell>
        <mxCell id="CWZuyPQcdSTSCTgXCkEn-12" value="Single Responsibility Principle (SRP)" style="text;align=center;verticalAlign=middle;whiteSpace=wrap;rounded=0;" vertex="1" parent="WIyWlLk6GJQsqaUBKTNV-1">
          <mxGeometry x="299" y="390" width="270" height="30" as="geometry" />
        </mxCell>
        <mxCell id="CWZuyPQcdSTSCTgXCkEn-13" value="Die Klasse Search hat eine einzige Verantwortlichkeit: die Suche nach Produkten. Sie kümmert sich ausschließlich um die Verwaltung der Filter und Sortierungen für die Produktsuche und bietet Methoden an, um Filter und Sortierungen hinzuzufügen oder zu entfernen. Dadurch wird sichergestellt, dass die Klasse leicht zu warten und zu testen ist, da jede Änderung in der Suche nur die Search-Klasse betrifft und nicht andere Teile des Systems." style="text;align=center;verticalAlign=middle;whiteSpace=wrap;rounded=0;" vertex="1" parent="WIyWlLk6GJQsqaUBKTNV-1">
          <mxGeometry x="224.5" y="391" width="419" height="140" as="geometry" />
        </mxCell>
      </root>
    </mxGraphModel>
  </diagram>
</mxfile>
